<svg width="26" height="44" viewBox="0 0 26 44" fill="none" xmlns="http://www.w3.org/2000/svg">
<path d="M19.3295 42.6977C20.6519 44.02 22.796 44.0194 24.1184 42.697C25.4405 41.3746 25.4406 39.2312 24.1184 37.9088L8.25544 22.0459L24.1184 6.18295C25.4408 4.86055 25.4408 2.71581 24.1184 1.39341C22.796 0.0713451 20.6518 0.0718117 19.3295 1.3941L1.06905 19.6546C0.946437 19.7775 0.83533 19.9076 0.735526 20.0433C0.701913 20.0891 0.669186 20.1352 0.63816 20.1821C0.576194 20.276 0.519934 20.3725 0.468289 20.4708C0.364935 20.6674 0.28172 20.8718 0.219697 21.0812C0.204109 21.1339 0.18986 21.1868 0.176884 21.24C0.138191 21.3987 0.111576 21.5596 0.0960911 21.7213L0.084352 21.8836C0.071467 22.1542 0.0906524 22.4261 0.142357 22.6929C0.173334 22.8529 0.215928 23.011 0.270106 23.1659C0.288248 23.2178 0.307367 23.2695 0.328111 23.3206C0.493354 23.728 0.741479 24.1096 1.07182 24.44L19.3295 42.6977Z" fill="#D9D9D9"/>
</svg>
