<svg width="84" height="85" viewBox="0 0 84 85" fill="none" xmlns="http://www.w3.org/2000/svg">
<path d="M33.8473 32.5788C33.8349 32.5708 33.8218 32.5634 33.8098 32.5548C33.3775 32.249 32.9852 31.7652 32.619 31.3831C32.1115 30.8558 31.6001 30.3322 31.0846 29.8126L27.0333 25.6917C26.2274 24.8718 25.3137 24.0982 24.66 23.1464C23.7722 21.8534 23.123 20.1995 22.7991 18.6676C21.9684 14.7103 22.7478 10.5839 24.9638 7.20669C27.0491 3.99639 30.4382 1.60187 34.1845 0.818394C36.3726 0.360803 38.7178 0.372136 40.8803 0.970585C41.2847 1.08246 41.7736 1.21024 42.1247 1.44161C42.158 1.44061 42.1913 1.44029 42.2246 1.43857C42.7067 1.41373 43.3265 1.1095 43.7925 0.972236C44.3009 0.822475 44.8399 0.737783 45.3648 0.662999C49.5121 0.0883343 53.7057 1.3271 56.8822 4.06515C59.5571 6.34293 61.7042 10.0366 62.0043 13.5904C62.3208 17.339 61.3627 21.1266 58.9094 24.0297C57.1847 26.0707 55.1798 27.8928 53.3047 29.7911C52.1576 30.9524 50.8951 32.4549 49.6806 33.4633C49.2323 33.7816 48.5303 34.618 48.1214 35.0363C46.6518 36.5114 45.2077 38.0118 43.7897 39.5371C43.2997 40.067 42.8252 40.3534 42.0898 40.3653C41.7919 40.3701 41.5633 40.3175 41.3205 40.1418C40.591 39.6145 39.5476 38.3797 38.8887 37.7013C37.2229 35.9861 35.5468 34.2598 33.8473 32.5788Z" fill="url(#paint0_linear_134_12438)"/>
<path d="M50.6302 52.0716C50.6426 52.0795 50.6557 52.087 50.6678 52.0956C51.1001 52.4014 51.4924 52.8852 51.8586 53.2673C52.366 53.7946 52.8775 54.3182 53.393 54.8378L57.4442 58.9587C58.2501 59.7786 59.1639 60.5522 59.8175 61.504C60.7053 62.797 61.3545 64.4508 61.6784 65.9828C62.5092 69.9401 61.7297 74.0665 59.5138 77.4437C57.4284 80.654 54.0394 83.0485 50.2931 83.832C48.105 84.2896 45.7597 84.2783 43.5973 83.6798C43.1929 83.5679 42.704 83.4402 42.3528 83.2088C42.3196 83.2098 42.2862 83.2101 42.253 83.2118C41.7709 83.2367 41.1511 83.5409 40.6851 83.6782C40.1767 83.8279 39.6376 83.9126 39.1128 83.9874C34.9654 84.5621 30.7718 83.3233 27.5953 80.5852C24.9205 78.3075 22.7734 74.6138 22.4733 71.06C22.1568 67.3114 23.1149 63.5238 25.5682 60.6207C27.2928 58.5797 29.2977 56.7576 31.1728 54.8593C32.3199 53.6979 33.5825 52.1955 34.7969 51.1871C35.2452 50.8688 35.9472 50.0324 36.3562 49.6141C37.8257 48.1389 39.2698 46.6386 40.6878 45.1133C41.1778 44.5834 41.6524 44.2969 42.3878 44.2851C42.6856 44.2803 42.9142 44.3329 43.1571 44.5086C43.8865 45.0359 44.9299 46.2707 45.5888 46.9491C47.2546 48.6643 48.9307 50.3906 50.6302 52.0716Z" fill="url(#paint1_linear_134_12438)"/>
<path d="M42.1357 1.45944C42.169 1.45844 42.2023 1.45811 42.2356 1.4564C42.7177 1.43156 43.3375 1.12733 43.8035 0.990063C44.3119 0.840301 44.8509 0.755609 45.3758 0.680826C49.5231 0.106161 53.7167 1.34493 56.8932 4.08298C59.5681 6.36075 61.7152 10.0544 62.0153 13.6083C62.3318 17.3568 61.3737 21.1444 58.9204 24.0476C57.1957 26.0885 55.1908 27.9106 53.3157 29.8089C52.1686 30.9703 50.9061 32.4728 49.6916 33.4811C49.6494 33.3966 49.6157 33.3721 49.6452 33.2679C49.7492 32.9015 50.1902 32.4726 50.3974 32.1381C50.6059 31.8012 50.8 31.4523 51.008 31.1137C52.8647 28.091 53.8549 24.6128 54.1592 21.0886C54.581 16.2062 53.044 10.8154 49.8769 7.04205C48.1146 4.94258 45.8069 3.22545 43.3678 2.00302C43.0142 1.82578 42.5395 1.51748 42.1478 1.48297L42.1357 1.45944Z" fill="#52D290"/>
<path d="M42.3525 83.1636C42.3193 83.1646 42.2859 83.1649 42.2527 83.1666C41.7706 83.1915 41.1508 83.4957 40.6848 83.633C40.1764 83.7827 39.6374 83.8674 39.1125 83.9422C34.9652 84.5169 30.7716 83.2781 27.5951 80.5401C24.9202 78.2623 22.7731 74.5686 22.473 71.0148C22.1565 67.2662 23.1146 63.4786 25.5679 60.5755C27.2926 58.5345 29.2975 56.7124 31.1726 54.8141C32.3197 53.6528 33.5822 52.1503 34.7967 51.142C34.8389 51.2265 34.8726 51.2509 34.8431 51.3552C34.7391 51.7216 34.2981 52.1505 34.0909 52.4849C33.8824 52.8219 33.6883 53.1708 33.4803 53.5093C31.6236 56.5321 30.6334 60.0103 30.3291 63.5345C29.9073 68.4169 31.4443 73.8076 34.6114 77.581C36.3736 79.6805 38.6813 81.3976 41.1205 82.62C41.4741 82.7973 41.9488 83.1056 42.3404 83.1401L42.3525 83.1636Z" fill="#0D907F"/>
<path d="M33.859 32.5964C33.8466 32.5884 33.8336 32.581 33.8215 32.5724C33.3892 32.2666 32.9969 31.7828 32.6307 31.4007C32.1233 30.8734 31.6118 30.3498 31.0963 29.8302L27.0451 25.7093C26.2392 24.8894 25.3254 24.1158 24.6717 23.164C23.7839 21.871 23.1348 20.2171 22.8108 18.6852C21.9801 14.7279 22.7595 10.6014 24.9755 7.22426C27.0609 4.01397 30.4499 1.61945 34.1962 0.835972C36.3843 0.378381 38.7296 0.389715 40.892 0.988163C41.2964 1.10004 41.7853 1.22781 42.1365 1.45919L42.1486 1.48272C41.1387 2.02686 40.0972 2.4918 39.1299 3.11545C35.1861 5.65703 32.2924 9.5463 30.9842 14.0643C29.5229 18.9434 30.0421 24.0352 32.0259 28.682C32.2937 29.3157 32.5826 29.94 32.8924 30.5541C33.2231 31.199 33.681 31.8926 33.859 32.5964Z" fill="#52D290"/>
<path d="M50.6244 51.9993C50.6368 52.0073 50.6498 52.0147 50.6619 52.0233C51.0942 52.3291 51.4865 52.8129 51.8527 53.195C52.3601 53.7223 52.8716 54.2459 53.3871 54.7655L57.4383 58.8864C58.2442 59.7063 59.158 60.4799 59.8117 61.4318C60.6995 62.7247 61.3486 64.3786 61.6726 65.9105C62.5033 69.8678 61.7239 73.9943 59.5079 77.3714C57.4225 80.5817 54.0335 82.9763 50.2872 83.7597C48.0991 84.2173 45.7538 84.206 43.5914 83.6075C43.187 83.4957 42.6981 83.3679 42.3469 83.1365L42.3348 83.113C43.3447 82.5688 44.3862 82.1039 45.3535 81.4803C49.2973 78.9387 52.191 75.0494 53.4992 70.5314C54.9605 65.6523 54.4413 60.5605 52.4575 55.9137C52.1897 55.28 51.9008 54.6557 51.591 54.0416C51.2603 53.3967 50.8024 52.7031 50.6244 51.9993Z" fill="#0D907F"/>
<path d="M52.9124 32.3669C53.3283 31.8612 53.817 31.3921 54.2699 30.9187L57.3045 27.808C58.2144 26.8657 59.1337 25.9327 60.0624 25.0092C60.63 24.4357 61.18 23.8422 61.796 23.3197C62.2986 22.8892 62.856 22.5277 63.4534 22.2448C66.4077 20.8532 69.9979 20.9115 73.0191 22.0306C76.3325 23.258 79.2847 26.0635 80.7666 29.2772C82.2103 32.2745 82.5138 35.6925 81.9254 38.9529C83.7267 43.1526 84.1433 47.6835 82.4328 51.9942C80.9528 55.7243 78.059 58.9115 74.3633 60.5147C71.1105 61.9257 66.9322 62.2928 63.5924 60.9506C62.4832 60.5047 61.3722 59.9281 60.4249 59.1957C59.4571 58.4474 58.6093 57.5444 57.7481 56.6782L54.0531 52.9055C53.355 52.1846 52.6088 51.513 51.894 50.809C50.7863 49.7181 49.6998 48.5812 48.6504 47.4336C48.2233 47.0948 47.8279 46.6497 47.4308 46.2699C46.3839 45.2682 45.305 44.2294 44.3483 43.1404C44.0423 42.792 43.8427 42.4355 43.8831 41.9619C43.9047 41.7095 43.9712 41.453 44.1274 41.2497C44.4818 40.7881 45.0023 40.395 45.4132 39.975L48.9989 36.3341C50.3058 35.0311 51.5224 33.578 52.9124 32.3669Z" fill="url(#paint2_linear_134_12438)"/>
<path d="M80.3324 36.4122L80.4164 36.407C81.0208 37.0776 81.417 37.9268 81.8734 38.6981C81.8765 38.0761 82.0229 37.461 82.0681 36.8419C82.1558 35.6421 82.0747 34.4081 81.8902 33.221C81.8035 32.6618 81.7006 32.0503 81.5361 31.5103C81.4053 31.0813 80.7109 29.5845 80.7665 29.2773C82.2103 32.2747 82.5137 35.6927 81.9254 38.9531C83.7266 43.1527 84.1433 47.6837 82.4328 51.9944C80.9527 55.7245 78.0589 58.9117 74.3632 60.5149C71.1104 61.9259 66.9322 62.293 63.5923 60.9508C62.4831 60.5049 61.3722 59.9283 60.4249 59.1959C59.4571 58.4476 58.6093 57.5446 57.7481 56.6784L54.053 52.9057C53.355 52.1848 52.6088 51.5132 51.894 50.8092C50.7862 49.7183 49.6998 48.5814 48.6504 47.4338C48.7396 47.441 48.8386 47.4401 48.9205 47.4813C49.3378 47.6901 49.7386 47.993 50.1404 48.2351C50.9262 48.7058 51.7208 49.1612 52.5241 49.6011C54.649 50.7687 56.8962 51.5383 59.2733 51.9926C63.7336 52.845 67.8559 52.7095 72.0294 50.7683C72.9823 50.325 73.9095 49.8401 74.7784 49.2446C77.8424 47.145 80.3968 44.2398 81.4571 40.6157C81.5787 40.2001 81.7219 39.7665 81.7941 39.3396C81.8238 39.1644 81.843 38.9955 81.7949 38.8215C81.5837 38.055 80.795 37.0724 80.3324 36.4122Z" fill="url(#paint3_linear_134_12438)"/>
<path d="M52.9121 32.3669C53.328 31.8611 53.8167 31.3921 54.2696 30.9187L57.3042 27.808C58.2141 26.8657 59.1334 25.9327 60.0621 25.0092C60.6297 24.4357 61.1797 23.8422 61.7956 23.3197C62.2982 22.8892 62.8557 22.5277 63.4531 22.2448C66.4074 20.8532 69.9976 20.9115 73.0188 22.0306C76.3322 23.258 79.2844 26.0635 80.7662 29.2772C80.7106 29.5843 81.4051 31.0811 81.5358 31.5101C81.7003 32.0501 81.8032 32.6616 81.8899 33.2208C82.0744 34.4079 82.1555 35.6419 82.0678 36.8417C82.0226 37.4608 81.8762 38.0759 81.8732 38.6979C81.4167 37.9266 81.0205 37.0774 80.4162 36.4068L80.3322 36.412C79.3067 35.0965 78.2553 33.9277 76.9498 32.8842C72.2856 29.1569 66.2164 27.5648 60.3719 28.9493C59.1588 29.2367 57.9052 29.6418 56.7845 30.195C55.962 30.601 55.176 31.0701 54.3991 31.5574C54.0076 31.8029 53.6167 32.0898 53.2099 32.3051C53.1398 32.3423 53.079 32.3671 52.9987 32.3695C52.9698 32.3703 52.941 32.3677 52.9121 32.3669Z" fill="#0DA471"/>
<path d="M2.61862 39.0154C2.60863 38.5834 2.52217 38.1378 2.47778 37.707C2.42091 37.1551 2.40822 36.5988 2.40164 36.0442C2.35407 32.0311 3.70879 28.176 6.54237 25.2858C9.0116 22.7672 12.2795 21.235 15.8185 21.217C20.9178 21.1913 22.9666 23.6368 26.2351 26.9894L30.8318 31.6194C32.6597 33.4225 34.4329 35.2799 36.2451 37.0987L38.9145 39.8156C39.3703 40.2805 39.866 40.7259 40.295 41.2145C40.5029 41.451 40.6865 41.7153 40.8026 42.0095C40.7934 42.2504 40.6164 42.4833 40.4737 42.67C39.9706 43.3283 39.3144 43.9243 38.7381 44.5198C37.7963 45.4932 36.8593 46.4921 35.8686 47.4156C35.8454 47.4373 35.8238 47.4613 35.798 47.4797C35.0741 48.3827 34.1697 49.1888 33.3505 50.0074L29.4308 53.9532L26.4081 57.0347C25.7835 57.6713 25.1651 58.3648 24.4552 58.9054C23.3453 59.7507 21.9204 60.4232 20.6092 60.8678C16.8856 62.1305 13.0569 61.9041 9.53064 60.1457C5.9641 58.367 2.96731 55.019 1.70575 51.2128C0.372506 47.2042 0.696428 42.8261 2.60497 39.0594L2.61862 39.0154Z" fill="url(#paint4_linear_134_12438)"/>
<path d="M35.798 47.4789C35.0741 48.3819 34.1697 49.188 33.3505 50.0066L29.4308 53.9524L26.4081 57.0339C25.7835 57.6705 25.1651 58.364 24.4551 58.9046C23.3453 59.7499 21.9204 60.4224 20.6092 60.867C16.8856 62.1297 13.0569 61.9034 9.53064 60.1449C5.9641 58.3662 2.96731 55.0182 1.70575 51.212C0.372506 47.2034 0.696428 42.8253 2.60497 39.0586C2.86891 40.2143 3.2704 41.4626 3.79436 42.5242C5.25453 45.4823 7.85687 47.9891 10.6173 49.726C15.1163 52.5569 20.6671 53.1594 25.792 51.9778C28.4084 51.3745 30.7359 50.3634 33.0642 49.042C33.4975 48.796 35.4608 47.477 35.798 47.4789Z" fill="url(#paint5_linear_134_12438)"/>
<path d="M2.61859 39.0154C2.60859 38.5834 2.52213 38.1378 2.47774 37.707C2.42087 37.1551 2.40818 36.5988 2.4016 36.0442C2.35403 32.0311 3.70875 28.176 6.54233 25.2858C9.01156 22.7672 12.2795 21.235 15.8184 21.217C20.9178 21.1913 22.9665 23.6368 26.2351 26.9894L30.8318 31.6194C30.7696 31.6346 30.7091 31.6647 30.6451 31.6647C30.3428 31.6649 28.719 30.601 28.3208 30.4006C27.0787 29.7751 25.6985 29.288 24.3493 28.9525C18.0602 27.4434 11.435 29.166 6.66629 33.5506C5.52192 34.5996 4.47151 35.762 3.66335 37.0952C3.39966 37.53 2.69932 38.5737 2.61859 39.0154Z" fill="#0DA471"/>
<defs>
<linearGradient id="paint0_linear_134_12438" x1="31.4148" y1="10.7384" x2="52.7383" y2="29.7424" gradientUnits="userSpaceOnUse">
<stop stop-color="#6DE087"/>
<stop offset="1" stop-color="#3CC898"/>
</linearGradient>
<linearGradient id="paint1_linear_134_12438" x1="53.0627" y1="73.912" x2="31.7393" y2="54.9079" gradientUnits="userSpaceOnUse">
<stop stop-color="#088A7C"/>
<stop offset="1" stop-color="#3CC898"/>
</linearGradient>
<linearGradient id="paint2_linear_134_12438" x1="52.7487" y1="31.3723" x2="74.6119" y2="50.2474" gradientUnits="userSpaceOnUse">
<stop stop-color="#14B16E"/>
<stop offset="1" stop-color="#059776"/>
</linearGradient>
<linearGradient id="paint3_linear_134_12438" x1="54.2649" y1="39.0488" x2="80.8145" y2="54.8652" gradientUnits="userSpaceOnUse">
<stop stop-color="#0DA471"/>
<stop offset="1" stop-color="#069875"/>
</linearGradient>
<linearGradient id="paint4_linear_134_12438" x1="26.3639" y1="29.6055" x2="16.5287" y2="52.4077" gradientUnits="userSpaceOnUse">
<stop stop-color="#1BB771"/>
<stop offset="1" stop-color="#0CA278"/>
</linearGradient>
<linearGradient id="paint5_linear_134_12438" x1="20.843" y1="39.9977" x2="10.0436" y2="60.2923" gradientUnits="userSpaceOnUse">
<stop stop-color="#0DA471"/>
<stop offset="1" stop-color="#069875"/>
</linearGradient>
</defs>
</svg>
