<svg width="101" height="102" viewBox="0 0 101 102" fill="none" xmlns="http://www.w3.org/2000/svg">
<g clip-path="url(#clip0_728_1209)">
<path d="M41.8473 43.5788C41.8349 43.5709 41.8218 43.5634 41.8098 43.5548C41.3775 43.249 40.9852 42.7652 40.619 42.3831C40.1115 41.8558 39.6001 41.3322 39.0846 40.8126L35.0333 36.6917C34.2274 35.8718 33.3137 35.0982 32.66 34.1464C31.7722 32.8534 31.123 31.1995 30.7991 29.6676C29.9684 25.7103 30.7478 21.5839 32.9638 18.2067C35.0491 14.9964 38.4382 12.6019 42.1845 11.8184C44.3726 11.3608 46.7178 11.3721 48.8803 11.9706C49.2847 12.0825 49.7736 12.2102 50.1247 12.4416C50.158 12.4406 50.1913 12.4403 50.2246 12.4386C50.7067 12.4137 51.3265 12.1095 51.7925 11.9722C52.3009 11.8225 52.8399 11.7378 53.3648 11.663C57.5121 11.0883 61.7057 12.3271 64.8822 15.0652C67.5571 17.3429 69.7042 21.0366 70.0043 24.5904C70.3208 28.339 69.3627 32.1266 66.9094 35.0297C65.1847 37.0707 63.1798 38.8928 61.3047 40.7911C60.1576 41.9524 58.8951 43.4549 57.6806 44.4633C57.2323 44.7816 56.5303 45.618 56.1214 46.0363C54.6518 47.5114 53.2077 49.0118 51.7897 50.5371C51.2997 51.067 50.8252 51.3534 50.0898 51.3653C49.7919 51.3701 49.5633 51.3175 49.3205 51.1418C48.591 50.6145 47.5476 49.3797 46.8888 48.7013C45.2229 46.9861 43.5468 45.2598 41.8473 43.5788Z" fill="url(#paint0_linear_728_1209)"/>
<path d="M58.6302 63.0716C58.6426 63.0795 58.6557 63.087 58.6678 63.0956C59.1001 63.4014 59.4924 63.8852 59.8586 64.2673C60.366 64.7946 60.8775 65.3182 61.393 65.8378L65.4442 69.9587C66.2501 70.7786 67.1639 71.5522 67.8175 72.504C68.7053 73.797 69.3545 75.4508 69.6784 76.9828C70.5092 80.9401 69.7297 85.0665 67.5138 88.4437C65.4284 91.654 62.0394 94.0485 58.2931 94.832C56.105 95.2896 53.7597 95.2783 51.5973 94.6798C51.1929 94.5679 50.704 94.4402 50.3528 94.2088C50.3196 94.2098 50.2862 94.2101 50.253 94.2118C49.7709 94.2367 49.1511 94.5409 48.6851 94.6782C48.1767 94.8279 47.6376 94.9126 47.1128 94.9874C42.9654 95.5621 38.7718 94.3233 35.5953 91.5852C32.9205 89.3075 30.7734 85.6138 30.4733 82.06C30.1568 78.3114 31.1149 74.5238 33.5682 71.6207C35.2928 69.5797 37.2977 67.7576 39.1728 65.8593C40.3199 64.6979 41.5825 63.1955 42.7969 62.1871C43.2452 61.8688 43.9473 61.0324 44.3562 60.6141C45.8257 59.1389 47.2698 57.6386 48.6878 56.1133C49.1778 55.5834 49.6524 55.2969 50.3878 55.2851C50.6856 55.2803 50.9142 55.3329 51.1571 55.5086C51.8865 56.0359 52.9299 57.2707 53.5888 57.9491C55.2546 59.6643 56.9307 61.3906 58.6302 63.0716Z" fill="url(#paint1_linear_728_1209)"/>
<path d="M50.1357 12.4594C50.169 12.4584 50.2023 12.4581 50.2356 12.4564C50.7177 12.4316 51.3375 12.1273 51.8035 11.9901C52.3119 11.8403 52.8509 11.7556 53.3758 11.6808C57.5231 11.1062 61.7167 12.3449 64.8932 15.083C67.5681 17.3608 69.7152 21.0544 70.0153 24.6083C70.3318 28.3568 69.3737 32.1444 66.9204 35.0476C65.1957 37.0885 63.1908 38.9106 61.3157 40.8089C60.1686 41.9703 58.9061 43.4728 57.6916 44.4811C57.6494 44.3966 57.6157 44.3721 57.6452 44.2679C57.7492 43.9015 58.1902 43.4726 58.3974 43.1381C58.6059 42.8012 58.8 42.4523 59.008 42.1137C60.8647 39.091 61.8549 35.6128 62.1592 32.0886C62.581 27.2062 61.044 21.8154 57.8769 18.042C56.1146 15.9426 53.8069 14.2255 51.3678 13.003C51.0142 12.8258 50.5395 12.5175 50.1478 12.483L50.1357 12.4594Z" fill="#52D290"/>
<path d="M50.3525 94.1636C50.3193 94.1646 50.2859 94.1649 50.2527 94.1666C49.7706 94.1915 49.1508 94.4957 48.6848 94.633C48.1764 94.7827 47.6374 94.8674 47.1125 94.9422C42.9652 95.5169 38.7716 94.2781 35.5951 91.5401C32.9202 89.2623 30.7731 85.5686 30.473 82.0148C30.1565 78.2662 31.1146 74.4786 33.5679 71.5755C35.2926 69.5345 37.2975 67.7124 39.1726 65.8141C40.3197 64.6528 41.5822 63.1503 42.7967 62.142C42.8389 62.2265 42.8726 62.2509 42.8431 62.3552C42.7391 62.7216 42.2981 63.1505 42.0909 63.4849C41.8824 63.8219 41.6883 64.1708 41.4803 64.5093C39.6236 67.5321 38.6334 71.0103 38.3291 74.5345C37.9073 79.4169 39.4443 84.8076 42.6114 88.581C44.3736 90.6805 46.6813 92.3976 49.1205 93.62C49.4741 93.7973 49.9488 94.1056 50.3404 94.1401L50.3525 94.1636Z" fill="#0D907F"/>
<path d="M41.859 43.5964C41.8466 43.5884 41.8336 43.581 41.8215 43.5724C41.3892 43.2666 40.9969 42.7828 40.6307 42.4007C40.1233 41.8734 39.6118 41.3498 39.0963 40.8302L35.0451 36.7093C34.2392 35.8894 33.3254 35.1158 32.6717 34.1639C31.7839 32.871 31.1348 31.2171 30.8108 29.6852C29.9801 25.7279 30.7595 21.6014 32.9755 18.2243C35.0609 15.014 38.4499 12.6194 42.1962 11.836C44.3843 11.3784 46.7296 11.3897 48.892 11.9882C49.2964 12.1 49.7853 12.2278 50.1365 12.4592L50.1486 12.4827C49.1387 13.0269 48.0972 13.4918 47.1299 14.1154C43.1861 16.657 40.2924 20.5463 38.9842 25.0643C37.5229 29.9434 38.0421 35.0352 40.0259 39.682C40.2937 40.3157 40.5826 40.94 40.8924 41.5541C41.2231 42.199 41.681 42.8926 41.859 43.5964Z" fill="#52D290"/>
<path d="M58.6244 62.9993C58.6368 63.0073 58.6498 63.0147 58.6619 63.0233C59.0942 63.3291 59.4865 63.8129 59.8527 64.195C60.3601 64.7223 60.8716 65.2459 61.3871 65.7655L65.4383 69.8864C66.2442 70.7063 67.158 71.4799 67.8117 72.4318C68.6995 73.7247 69.3486 75.3786 69.6726 76.9105C70.5033 80.8678 69.7239 84.9943 67.5079 88.3714C65.4225 91.5817 62.0335 93.9763 58.2872 94.7597C56.0991 95.2173 53.7538 95.206 51.5914 94.6075C51.187 94.4957 50.6981 94.3679 50.3469 94.1365L50.3348 94.113C51.3447 93.5688 52.3862 93.1039 53.3535 92.4803C57.2973 89.9387 60.191 86.0494 61.4992 81.5314C62.9605 76.6523 62.4413 71.5605 60.4575 66.9137C60.1897 66.28 59.9008 65.6557 59.591 65.0416C59.2603 64.3967 58.8024 63.7031 58.6244 62.9993Z" fill="#0D907F"/>
<path d="M60.9124 43.3669C61.3283 42.8611 61.817 42.3921 62.2699 41.9187L65.3045 38.808C66.2144 37.8657 67.1337 36.9327 68.0624 36.0092C68.63 35.4357 69.18 34.8422 69.796 34.3197C70.2986 33.8892 70.856 33.5277 71.4534 33.2448C74.4077 31.8532 77.9979 31.9115 81.0191 33.0306C84.3325 34.258 87.2847 37.0635 88.7666 40.2772C90.2103 43.2745 90.5138 46.6925 89.9254 49.9529C91.7267 54.1526 92.1433 58.6835 90.4328 62.9942C88.9528 66.7243 86.059 69.9115 82.3633 71.5147C79.1105 72.9257 74.9322 73.2928 71.5924 71.9506C70.4832 71.5047 69.3722 70.9282 68.4249 70.1957C67.4571 69.4474 66.6093 68.5444 65.7481 67.6782L62.0531 63.9055C61.355 63.1846 60.6088 62.513 59.894 61.809C58.7863 60.7181 57.6998 59.5812 56.6504 58.4336C56.2233 58.0948 55.8279 57.6497 55.4308 57.2699C54.3839 56.2682 53.305 55.2294 52.3483 54.1404C52.0423 53.792 51.8427 53.4355 51.8831 52.9619C51.9047 52.7095 51.9712 52.453 52.1274 52.2497C52.4818 51.7881 53.0023 51.395 53.4132 50.975L56.9989 47.3341C58.3058 46.0311 59.5224 44.578 60.9124 43.3669Z" fill="url(#paint2_linear_728_1209)"/>
<path d="M88.3324 47.4122L88.4164 47.407C89.0208 48.0776 89.417 48.9268 89.8734 49.6981C89.8765 49.0761 90.0229 48.461 90.0681 47.8419C90.1558 46.6421 90.0747 45.4081 89.8902 44.221C89.8035 43.6618 89.7006 43.0503 89.5361 42.5103C89.4053 42.0813 88.7109 40.5845 88.7665 40.2773C90.2103 43.2747 90.5137 46.6927 89.9254 49.9531C91.7266 54.1527 92.1432 58.6837 90.4328 62.9944C88.9527 66.7245 86.0589 69.9117 82.3632 71.5149C79.1104 72.9259 74.9321 73.293 71.5923 71.9508C70.4831 71.5049 69.3722 70.9283 68.4249 70.1959C67.4571 69.4476 66.6093 68.5446 65.7481 67.6784L62.053 63.9057C61.355 63.1848 60.6088 62.5132 59.894 61.8092C58.7862 60.7183 57.6998 59.5814 56.6504 58.4338C56.7396 58.441 56.8386 58.4401 56.9205 58.4813C57.3378 58.6901 57.7386 58.993 58.1404 59.2351C58.9262 59.7058 59.7208 60.1612 60.5241 60.6011C62.649 61.7687 64.8962 62.5383 67.2733 62.9926C71.7336 63.845 75.8559 63.7095 80.0294 61.7683C80.9823 61.325 81.9095 60.8401 82.7784 60.2446C85.8424 58.145 88.3968 55.2398 89.4571 51.6157C89.5787 51.2001 89.7219 50.7665 89.7941 50.3396C89.8238 50.1644 89.843 49.9955 89.7949 49.8215C89.5837 49.055 88.795 48.0724 88.3324 47.4122Z" fill="url(#paint3_linear_728_1209)"/>
<path d="M60.9121 43.3669C61.328 42.8611 61.8167 42.3921 62.2696 41.9187L65.3042 38.808C66.2141 37.8657 67.1334 36.9327 68.0621 36.0092C68.6297 35.4357 69.1797 34.8422 69.7956 34.3197C70.2982 33.8892 70.8557 33.5277 71.4531 33.2448C74.4074 31.8532 77.9976 31.9115 81.0188 33.0306C84.3322 34.258 87.2844 37.0635 88.7662 40.2772C88.7106 40.5843 89.4051 42.0811 89.5358 42.5101C89.7003 43.0501 89.8032 43.6616 89.8899 44.2208C90.0744 45.4079 90.1555 46.6419 90.0678 47.8417C90.0226 48.4608 89.8762 49.0759 89.8732 49.6979C89.4167 48.9266 89.0205 48.0774 88.4162 47.4068L88.3322 47.412C87.3067 46.0965 86.2553 44.9277 84.9498 43.8842C80.2856 40.1569 74.2164 38.5648 68.3719 39.9493C67.1588 40.2367 65.9052 40.6418 64.7845 41.195C63.962 41.601 63.176 42.0701 62.3991 42.5574C62.0076 42.8029 61.6167 43.0898 61.2099 43.3051C61.1398 43.3423 61.079 43.3671 60.9987 43.3695C60.9698 43.3703 60.941 43.3678 60.9121 43.3669Z" fill="#0DA471"/>
<path d="M10.6186 50.0154C10.6086 49.5834 10.5222 49.1378 10.4778 48.707C10.4209 48.1551 10.4082 47.5988 10.4016 47.0442C10.3541 43.0311 11.7088 39.176 14.5424 36.2858C17.0116 33.7672 20.2795 32.235 23.8185 32.217C28.9178 32.1913 30.9666 34.6368 34.2351 37.9894L38.8318 42.6194C40.6597 44.4225 42.4329 46.2799 44.2451 48.0987L46.9145 50.8156C47.3703 51.2805 47.866 51.7259 48.295 52.2145C48.5029 52.451 48.6865 52.7153 48.8026 53.0095C48.7934 53.2504 48.6164 53.4833 48.4737 53.67C47.9706 54.3283 47.3144 54.9243 46.7381 55.5198C45.7963 56.4932 44.8593 57.4921 43.8686 58.4156C43.8454 58.4373 43.8238 58.4613 43.798 58.4797C43.0741 59.3827 42.1697 60.1888 41.3505 61.0074L37.4308 64.9532L34.4081 68.0347C33.7835 68.6713 33.1651 69.3647 32.4552 69.9053C31.3453 70.7507 29.9204 71.4232 28.6092 71.8678C24.8856 73.1305 21.0569 72.9041 17.5306 71.1457C13.9641 69.367 10.9673 66.019 9.70575 62.2128C8.37251 58.2042 8.69643 53.8261 10.605 50.0594L10.6186 50.0154Z" fill="url(#paint4_linear_728_1209)"/>
<path d="M43.798 58.4789C43.0741 59.3819 42.1697 60.188 41.3505 61.0066L37.4308 64.9524L34.4081 68.0339C33.7835 68.6705 33.1651 69.364 32.4552 69.9046C31.3453 70.7499 29.9204 71.4224 28.6092 71.867C24.8856 73.1297 21.0569 72.9034 17.5306 71.1449C13.9641 69.3662 10.9673 66.0182 9.70575 62.212C8.37251 58.2034 8.69643 53.8253 10.605 50.0586C10.8689 51.2143 11.2704 52.4626 11.7944 53.5242C13.2545 56.4823 15.8569 58.9891 18.6173 60.726C23.1163 63.5569 28.6671 64.1594 33.792 62.9778C36.4083 62.3745 38.7359 61.3634 41.0642 60.042C41.4975 59.796 43.4608 58.477 43.798 58.4789Z" fill="url(#paint5_linear_728_1209)"/>
<path d="M10.6186 50.0154C10.6086 49.5834 10.5221 49.1378 10.4777 48.707C10.4209 48.1551 10.4082 47.5988 10.4016 47.0442C10.354 43.0311 11.7088 39.176 14.5423 36.2858C17.0116 33.7672 20.2795 32.235 23.8184 32.217C28.9178 32.1913 30.9665 34.6368 34.2351 37.9894L38.8318 42.6194C38.7696 42.6346 38.7091 42.6647 38.6451 42.6647C38.3428 42.6649 36.719 41.601 36.3208 41.4006C35.0787 40.7751 33.6985 40.288 32.3493 39.9525C26.0602 38.4434 19.435 40.166 14.6663 44.5506C13.5219 45.5996 12.4715 46.762 11.6633 48.0952C11.3997 48.53 10.6993 49.5737 10.6186 50.0154Z" fill="#0DA471"/>
</g>
<defs>
<linearGradient id="paint0_linear_728_1209" x1="39.4148" y1="21.7384" x2="60.7383" y2="40.7424" gradientUnits="userSpaceOnUse">
<stop stop-color="#6DE087"/>
<stop offset="1" stop-color="#3CC898"/>
</linearGradient>
<linearGradient id="paint1_linear_728_1209" x1="61.0627" y1="84.912" x2="39.7393" y2="65.9079" gradientUnits="userSpaceOnUse">
<stop stop-color="#088A7C"/>
<stop offset="1" stop-color="#3CC898"/>
</linearGradient>
<linearGradient id="paint2_linear_728_1209" x1="60.7487" y1="42.3723" x2="82.6119" y2="61.2474" gradientUnits="userSpaceOnUse">
<stop stop-color="#14B16E"/>
<stop offset="1" stop-color="#059776"/>
</linearGradient>
<linearGradient id="paint3_linear_728_1209" x1="62.2649" y1="50.0488" x2="88.8145" y2="65.8652" gradientUnits="userSpaceOnUse">
<stop stop-color="#0DA471"/>
<stop offset="1" stop-color="#069875"/>
</linearGradient>
<linearGradient id="paint4_linear_728_1209" x1="34.3639" y1="40.6055" x2="24.5287" y2="63.4077" gradientUnits="userSpaceOnUse">
<stop stop-color="#1BB771"/>
<stop offset="1" stop-color="#0CA278"/>
</linearGradient>
<linearGradient id="paint5_linear_728_1209" x1="28.843" y1="50.9977" x2="18.0436" y2="71.2923" gradientUnits="userSpaceOnUse">
<stop stop-color="#0DA471"/>
<stop offset="1" stop-color="#069875"/>
</linearGradient>
<clipPath id="clip0_728_1209">
<rect width="100.455" height="102" fill="white"/>
</clipPath>
</defs>
</svg>
