<svg width="26" height="44" viewBox="0 0 26 44" fill="none" xmlns="http://www.w3.org/2000/svg">
<path d="M6.11773 42.6977C4.79533 44.02 2.65125 44.0194 1.32888 42.697C0.00674926 41.3746 0.00663345 39.2312 1.32888 37.9088L17.1918 22.0459L1.32888 6.18295C0.00647952 4.86055 0.00647952 2.71581 1.32888 1.39341C2.65131 0.0713451 4.79544 0.0718117 6.11773 1.3941L24.3782 19.6546C24.5008 19.7775 24.6119 19.9076 24.7117 20.0433C24.7454 20.0891 24.7781 20.1352 24.8091 20.1821C24.8711 20.276 24.9273 20.3725 24.979 20.4708C25.0823 20.6674 25.1655 20.8718 25.2276 21.0812C25.2432 21.1339 25.2574 21.1868 25.2704 21.24C25.3091 21.3987 25.3357 21.5596 25.3512 21.7213L25.3629 21.8836C25.3758 22.1542 25.3566 22.4261 25.3049 22.6929C25.2739 22.8529 25.2313 23.011 25.1772 23.1659C25.159 23.2178 25.1399 23.2695 25.1192 23.3206C24.9539 23.728 24.7058 24.1096 24.3755 24.44L6.11773 42.6977Z" fill="#D9D9D9"/>
</svg>
