<svg width="30" height="33" viewBox="0 0 30 33" fill="none" xmlns="http://www.w3.org/2000/svg">
<path fill-rule="evenodd" clip-rule="evenodd" d="M22.0762 22.2756C21.7442 21.88 21.7722 21.2991 22.1068 20.9058C25.881 16.4701 26.0187 9.83064 22.1497 5.21982C17.8331 0.0753969 10.1633 -0.595618 5.0189 3.72106C-0.125521 8.03775 -0.796536 15.7075 3.52015 20.8519C7.38908 25.4627 13.9516 26.48 18.9752 23.5335C19.4207 23.2722 19.9977 23.3455 20.3296 23.7411L27.4651 32.2449C27.8201 32.668 28.4509 32.7232 28.874 32.3682L29.0884 32.1882C29.5115 31.8332 29.5667 31.2025 29.2117 30.7794L22.0762 22.2756ZM19.1855 20.6041C23.3653 17.0968 23.9105 10.8652 20.4032 6.68533C16.8959 2.50548 10.6643 1.96029 6.48441 5.46759C2.30457 8.97489 1.75937 15.2066 5.26667 19.3864C8.77398 23.5662 15.0056 24.1114 19.1855 20.6041Z" fill="white"/>
</svg>
