<svg width="25" height="26" viewBox="0 0 25 26" fill="none" xmlns="http://www.w3.org/2000/svg">
<path d="M13.785 0C15.1912 0.0038994 15.9049 0.0116982 16.5211 0.0298954L16.7636 0.038994C17.0436 0.0493924 17.3198 0.0623904 17.6536 0.077988C18.9835 0.142978 19.891 0.361345 20.6872 0.682396C21.5121 1.01255 22.2071 1.45968 22.9021 2.18107C23.5379 2.83062 24.0297 3.61666 24.3432 4.48431C24.652 5.31229 24.862 6.25594 24.9245 7.64023C24.9395 7.98598 24.952 8.27323 24.962 8.56569L24.9695 8.81785C24.9882 9.45735 24.9957 10.1995 24.9982 11.6618L24.9995 12.6315V14.3342C25.0025 15.2823 24.9929 16.2304 24.9707 17.1782L24.9632 17.4303C24.9532 17.7228 24.9407 18.01 24.9257 18.3558C24.8632 19.7401 24.6507 20.6824 24.3432 21.5117C24.0297 22.3794 23.5379 23.1654 22.9021 23.815C22.2774 24.4762 21.5215 24.9876 20.6872 25.3136C19.891 25.6347 18.9835 25.853 17.6536 25.918L16.7636 25.957L16.5211 25.9648C15.9049 25.983 15.1912 25.9921 13.785 25.9947L12.8526 25.996H11.2164C10.3043 25.9994 9.39214 25.9894 8.48028 25.9661L8.2378 25.9583C7.94107 25.9466 7.64442 25.9332 7.34784 25.918C6.01791 25.853 5.11045 25.6347 4.31299 25.3136C3.47907 24.9874 2.72363 24.476 2.09936 23.815C1.46307 23.1655 0.970798 22.3795 0.656928 21.5117C0.348194 20.6837 0.138204 19.7401 0.0757071 18.3558L0.038209 17.4303L0.0319595 17.1782C0.00891822 16.2304 -0.00149904 15.2823 0.00071096 14.3342V11.6618C-0.00274873 10.7137 0.00641844 9.76566 0.0282097 8.81785L0.0369592 8.56569C0.0469587 8.27323 0.059458 7.98598 0.0744573 7.64023C0.136954 6.25594 0.346943 5.31359 0.655678 4.48431C0.97028 3.6163 1.46342 2.83023 2.10061 2.18107C2.72452 1.52018 3.47952 1.00874 4.31299 0.682396C5.11045 0.361345 6.01666 0.142978 7.34784 0.077988C7.68032 0.0623904 7.95781 0.0493924 8.2378 0.038994L8.48028 0.0311951C9.39173 0.00810128 10.3034 -0.00186482 11.2151 0.00129971L13.785 0ZM12.5001 6.499C10.8426 6.499 9.25293 7.18372 8.08089 8.40252C6.90884 9.62132 6.2504 11.2744 6.2504 12.998C6.2504 14.7217 6.90884 16.3747 8.08089 17.5935C9.25293 18.8123 10.8426 19.497 12.5001 19.497C14.1576 19.497 15.7472 18.8123 16.9193 17.5935C18.0913 16.3747 18.7498 14.7217 18.7498 12.998C18.7498 11.2744 18.0913 9.62132 16.9193 8.40252C15.7472 7.18372 14.1576 6.499 12.5001 6.499ZM12.5001 9.09861C12.9925 9.09852 13.4801 9.1993 13.9351 9.39518C14.3901 9.59107 14.8035 9.87822 15.1518 10.2403C15.5 10.6023 15.7763 11.0321 15.9648 11.5052C16.1534 11.9782 16.2504 12.4853 16.2505 12.9974C16.2506 13.5094 16.1537 14.0165 15.9653 14.4896C15.7769 14.9628 15.5008 15.3927 15.1527 15.7548C14.8045 16.117 14.3912 16.4043 13.9363 16.6003C13.4814 16.7964 12.9938 16.8973 12.5013 16.8974C11.5068 16.8974 10.553 16.4866 9.84981 15.7553C9.14659 15.024 8.75152 14.0322 8.75152 12.998C8.75152 11.9638 9.14659 10.972 9.84981 10.2407C10.553 9.50943 11.5068 9.09861 12.5013 9.09861M19.0635 4.5493C18.6491 4.5493 18.2517 4.72048 17.9587 5.02518C17.6657 5.32988 17.5011 5.74314 17.5011 6.17405C17.5011 6.60497 17.6657 7.01823 17.9587 7.32293C18.2517 7.62763 18.6491 7.79881 19.0635 7.79881C19.4779 7.79881 19.8753 7.62763 20.1683 7.32293C20.4613 7.01823 20.6259 6.60497 20.6259 6.17405C20.6259 5.74314 20.4613 5.32988 20.1683 5.02518C19.8753 4.72048 19.4779 4.5493 19.0635 4.5493Z" fill="white"/>
</svg>
