<svg width="25" height="26" viewBox="0 0 25 26" fill="none" xmlns="http://www.w3.org/2000/svg">
<path d="M12.5 0C5.6 0 0 5.82325 0 12.9983C0 20.1734 5.6 25.9966 12.5 25.9966C19.4 25.9966 25 20.1734 25 12.9983C25 5.82325 19.4 0 12.5 0ZM18.3 8.83886C18.1125 10.8926 17.3 15.884 16.8875 18.1847C16.7125 19.1595 16.3625 19.4845 16.0375 19.5235C15.3125 19.5885 14.7625 19.0295 14.0625 18.5486C12.9625 17.7947 12.3375 17.3268 11.275 16.5989C10.0375 15.754 10.8375 15.286 11.55 14.5321C11.7375 14.3372 14.9375 11.3085 15 11.0356C15.0087 10.9942 15.0075 10.9513 14.9966 10.9105C14.9857 10.8698 14.9654 10.8324 14.9375 10.8016C14.8625 10.7366 14.7625 10.7626 14.675 10.7756C14.5625 10.8016 12.8125 12.0105 9.4 14.4021C8.9 14.7531 8.45 14.9351 8.05 14.9221C7.6 14.9091 6.75 14.6621 6.1125 14.4411C5.325 14.1812 4.7125 14.0382 4.7625 13.5832C4.7875 13.3493 5.1 13.1153 5.6875 12.8683C9.3375 11.2176 11.7625 10.1257 12.975 9.60576C16.45 8.09796 17.1625 7.83799 17.6375 7.83799C17.7375 7.83799 17.975 7.86398 18.125 7.99397C18.25 8.09795 18.2875 8.24094 18.3 8.34492C18.2875 8.42291 18.3125 8.65688 18.3 8.83886Z" fill="white"/>
</svg>
