<svg width="29" height="32" viewBox="0 0 29 32" fill="none" xmlns="http://www.w3.org/2000/svg">
<path fill-rule="evenodd" clip-rule="evenodd" d="M21.5721 21.5713C21.2375 21.1726 21.2657 20.587 21.603 20.1905C25.4072 15.7195 25.546 9.02708 21.6462 4.37948C17.2951 -0.805981 9.5642 -1.48235 4.37875 2.86877C-0.80671 7.21988 -1.48308 14.9508 2.86804 20.1363C6.76784 24.7839 13.3827 25.8093 18.4464 22.8392C18.8954 22.5759 19.477 22.6498 19.8116 23.0485L27.004 31.6201C27.3619 32.0466 27.9977 32.1022 28.4241 31.7444L28.6402 31.563C29.0667 31.2052 29.1223 30.5694 28.7645 30.1429L21.5721 21.5713ZM18.6583 19.8865C22.8715 16.3512 23.4211 10.0699 19.8858 5.85667C16.3505 1.64349 10.0691 1.09394 5.85595 4.62922C1.64276 8.1645 1.09321 14.4459 4.62849 18.6591C8.16377 22.8722 14.4451 23.4218 18.6583 19.8865Z" fill="white"/>
</svg>
