<svg width="1533" height="69" viewBox="0 0 1533 69" fill="none" xmlns="http://www.w3.org/2000/svg">
<path d="M34.5 1.5H164.5C182.725 1.5 197.5 16.2746 197.5 34.5C197.5 52.7254 182.725 67.5 164.5 67.5H34.5C16.2746 67.5 1.5 52.7254 1.5 34.5C1.5 16.2746 16.2746 1.5 34.5 1.5ZM244.5 1.5H374.5C392.725 1.5 407.5 16.2746 407.5 34.5C407.5 52.7254 392.725 67.5 374.5 67.5H244.5C226.275 67.5 211.5 52.7254 211.5 34.5C211.5 16.2746 226.275 1.5 244.5 1.5ZM454.5 1.5H604.5C622.725 1.5 637.5 16.2746 637.5 34.5C637.5 52.7254 622.725 67.5 604.5 67.5H454.5C436.275 67.5 421.5 52.7254 421.5 34.5C421.5 16.2746 436.275 1.5 454.5 1.5ZM684.5 1.5H834.5C852.725 1.5 867.5 16.2746 867.5 34.5C867.5 52.7254 852.725 67.5 834.5 67.5H684.5C666.275 67.5 651.5 52.7254 651.5 34.5C651.5 16.2746 666.275 1.5 684.5 1.5ZM914.5 1.5H1064.5C1082.73 1.5 1097.5 16.2746 1097.5 34.5C1097.5 52.7254 1082.73 67.5 1064.5 67.5H914.5C896.275 67.5 881.5 52.7254 881.5 34.5C881.5 16.2746 896.275 1.5 914.5 1.5ZM1144.5 1.5H1254.5C1272.73 1.5 1287.5 16.2746 1287.5 34.5C1287.5 52.7254 1272.73 67.5 1254.5 67.5H1144.5C1126.27 67.5 1111.5 52.7254 1111.5 34.5C1111.5 16.2746 1126.27 1.5 1144.5 1.5ZM1334.5 1.5H1498.5C1516.73 1.5 1531.5 16.2746 1531.5 34.5C1531.5 52.7254 1516.73 67.5 1498.5 67.5H1334.5C1316.27 67.5 1301.5 52.7254 1301.5 34.5C1301.5 16.2746 1316.27 1.5 1334.5 1.5Z" fill="#5E5C5C" fill-opacity="0.1" stroke="url(#paint0_linear_600_1271)" stroke-width="3"/>
<defs>
<linearGradient id="paint0_linear_600_1271" x1="-106.693" y1="34.721" x2="-13.31" y2="395.117" gradientUnits="userSpaceOnUse">
<stop offset="0.074155" stop-color="#B3B3B3" stop-opacity="0.5"/>
<stop offset="0.336538" stop-color="#343434" stop-opacity="0.35"/>
<stop offset="0.740385" stop-color="#B3B3B3" stop-opacity="0.5"/>
<stop offset="1" stop-color="#343434" stop-opacity="0.2"/>
</linearGradient>
</defs>
</svg>
