<svg width="21" height="20" viewBox="0 0 21 20" fill="none" xmlns="http://www.w3.org/2000/svg">
<path d="M19.4001 7.63667C18.1076 5.53167 15.1676 2 10.0076 2C4.84761 2 1.90761 5.53167 0.615111 7.63667C0.215551 8.28292 0.00390625 9.0277 0.00390625 9.7875C0.00390625 10.5473 0.215551 11.2921 0.615111 11.9383C1.90761 14.0433 4.84761 17.575 10.0076 17.575C15.1676 17.575 18.1076 14.0433 19.4001 11.9383C19.7997 11.2921 20.0113 10.5473 20.0113 9.7875C20.0113 9.0277 19.7997 8.28292 19.4001 7.63667ZM17.9793 11.0658C16.8693 12.8708 14.3568 15.9083 10.0076 15.9083C5.65844 15.9083 3.14594 12.8708 2.03594 11.0658C1.79856 10.6817 1.67282 10.2391 1.67282 9.7875C1.67282 9.33594 1.79856 8.8933 2.03594 8.50917C3.14594 6.70417 5.65844 3.66667 10.0076 3.66667C14.3568 3.66667 16.8693 6.70083 17.9793 8.50917C18.2167 8.8933 18.3424 9.33594 18.3424 9.7875C18.3424 10.2391 18.2167 10.6817 17.9793 11.0658Z" fill="#575757"/>
<path d="M10.0075 5.62085C9.1834 5.62085 8.37782 5.86522 7.69261 6.32306C7.00741 6.7809 6.47336 7.43164 6.15799 8.193C5.84263 8.95436 5.76011 9.79214 5.92088 10.6004C6.08166 11.4086 6.47849 12.1511 7.06121 12.7338C7.64393 13.3165 8.38636 13.7134 9.19461 13.8741C10.0029 14.0349 10.8406 13.9524 11.602 13.637C12.3634 13.3217 13.0141 12.7876 13.4719 12.1024C13.9298 11.4172 14.1742 10.6116 14.1742 9.78752C14.1728 8.68285 13.7334 7.62381 12.9523 6.8427C12.1712 6.06158 11.1122 5.62217 10.0075 5.62085ZM10.0075 12.2875C9.51304 12.2875 9.02969 12.1409 8.61856 11.8662C8.20744 11.5915 7.88701 11.201 7.69779 10.7442C7.50857 10.2874 7.45906 9.78474 7.55553 9.29979C7.65199 8.81484 7.89009 8.36938 8.23972 8.01975C8.58935 7.67012 9.03481 7.43202 9.51976 7.33555C10.0047 7.23909 10.5074 7.2886 10.9642 7.47782C11.421 7.66704 11.8115 7.98747 12.0862 8.39859C12.3609 8.80971 12.5075 9.29306 12.5075 9.78752C12.5075 10.4506 12.2441 11.0864 11.7753 11.5553C11.3064 12.0241 10.6705 12.2875 10.0075 12.2875Z" fill="#575757"/>
</svg>
