<svg width="18" height="18" viewBox="0 0 18 18" fill="none" xmlns="http://www.w3.org/2000/svg">
<path d="M16.2037 12.2676L13.6637 11.9776C13.365 11.9425 13.0623 11.9756 12.7782 12.0743C12.4942 12.173 12.2362 12.3348 12.0237 12.5476L10.1837 14.3876C7.34507 12.9435 5.03774 10.6362 3.59367 7.79758L5.44367 5.94758C5.87367 5.51758 6.08367 4.91758 6.01367 4.30758L5.72367 1.78758C5.66719 1.29967 5.43314 0.849604 5.06614 0.523174C4.69913 0.196744 4.22484 0.0167781 3.73367 0.0175808H2.00367C0.873674 0.0175808 -0.0663265 0.957581 0.00367348 2.08758C0.533673 10.6276 7.36367 17.4476 15.8937 17.9776C17.0237 18.0476 17.9637 17.1076 17.9637 15.9776V14.2476C17.9737 13.2376 17.2137 12.3876 16.2037 12.2676Z" fill="#575757"/>
</svg>
